<svg xmlns="http://www.w3.org/2000/svg" xmlns:xlink="http://www.w3.org/1999/xlink" xmlns:a="http://ns.adobe.com/AdobeSVGViewerExtensions/3.0/" version="1.1" x="0px" y="0px" viewBox="-36.933 -2.541 100 125" enable-background="new -36.933 -2.541 100 100" xml:space="preserve"><path d="M6.826,29.608c-2.259,1.911-3.707,4.751-3.707,7.942L1.077,78.876c-0.193,0.208-0.332,0.474-0.348,0.78L0.002,93.525  c-0.037,0.693,0.501,1.29,1.196,1.326l1.258,0.066c0.695,0.036,1.293-0.501,1.327-1.194l0.728-13.868  c0.018-0.317-0.098-0.607-0.28-0.839l2.042-41.391c0.007-2.941,1.697-5.416,4.131-6.591C9.112,30.761,7.908,30.273,6.826,29.608z"/><path d="M13.624,10.101v1.262v1.893v0.007c3.781,0.063,6.828,3.142,6.828,6.938c0,2.956-1.861,5.448-4.465,6.447  c1.234,0.384,2.371,0.983,3.387,1.735c2.555-1.829,4.234-4.799,4.234-8.183c0-4.26-2.643-7.897-6.373-9.381L16.032,0h-2.408V10.101z  "/><path d="M25.405,79.657c-0.018-0.307-0.154-0.572-0.35-0.78L23.014,37.55c0-5.753-4.662-10.418-10.416-10.418h-0.204  c-3.727-0.124-6.713-3.175-6.713-6.932c0-3.835,3.11-6.944,6.944-6.944v-1.894V10.1V0h-2.525L8.898,10.819  c-3.73,1.484-6.373,5.121-6.373,9.381c0,5.462,4.344,9.822,9.758,10.083c0.085,0.004,0.553-0.009,0.553-0.009  c3.797,0.047,7.016,3.27,7.024,7.351l2.041,41.391c-0.182,0.231-0.295,0.521-0.277,0.839l0.727,13.868  c0.035,0.693,0.631,1.23,1.326,1.194l1.26-0.066c0.695-0.036,1.232-0.633,1.195-1.326L25.405,79.657z M13.067,29.595  c-0.483,0-0.875-0.392-0.875-0.875s0.392-0.875,0.875-0.875s0.875,0.392,0.875,0.875S13.55,29.595,13.067,29.595z"/></svg>